<svg width="22" height="22" viewBox="0 0 22 22" fill="none" xmlns="http://www.w3.org/2000/svg">
<path d="M5.09322 7.3945H0.639696V21.79H5.09322V7.3945Z" fill="#FDFDFD"/>
<path d="M2.84091 5.51095C4.29405 5.51095 5.47537 4.31918 5.47537 2.85558C5.47537 1.39199 4.29405 0.200195 2.84091 0.200195C1.38777 0.200195 0.206421 1.39199 0.206421 2.85558C0.206421 4.31918 1.38777 5.51095 2.84091 5.51095Z" fill="#FDFDFD"/>
<path d="M12.2179 14.2418C12.2179 12.2136 13.1483 11.0114 14.936 11.0114C16.5773 11.0114 17.3614 12.1718 17.3614 14.2418V21.8002H21.794V12.6841C21.794 8.82647 19.6091 6.96562 16.5564 6.96562C13.5038 6.96562 12.2179 9.34918 12.2179 9.34918V7.40469H7.9421V21.8002H12.2179V14.2418Z" fill="#FDFDFD"/>
</svg>
