<svg width="22" height="22" viewBox="0 0 22 22" fill="none" xmlns="http://www.w3.org/2000/svg">
<path d="M11 0.200195C5.03484 0.200195 0.199951 5.03508 0.199951 11.0002C0.199951 16.9653 5.03484 21.8002 11 21.8002C16.9651 21.8002 21.7999 16.9653 21.7999 11.0002C21.7999 5.03508 16.9651 0.200195 11 0.200195ZM15.9694 15.8082C15.7541 16.1311 15.3774 16.2387 15.0544 16.0235C12.5159 14.4537 9.33151 14.1308 5.54612 15.0009C5.16938 15.1085 4.84646 14.8394 4.73882 14.5165C4.63118 14.1397 4.90029 13.8168 5.22321 13.7092C9.33152 12.7942 12.8926 13.171 15.7003 14.8932C16.077 15.0547 16.1308 15.4852 15.9694 15.8082ZM17.2701 12.8391C17.001 13.2158 16.5166 13.3773 16.1398 13.1082C13.2245 11.3231 8.79332 10.7849 5.39365 11.8613C4.96308 11.969 4.47868 11.7537 4.37104 11.3231C4.2634 10.8926 4.47869 10.4082 4.90926 10.3005C8.8561 9.11648 13.7179 9.7085 17.0637 11.7627C17.3867 11.9241 17.5481 12.4623 17.279 12.8391H17.2701ZM17.3777 9.81614C13.9242 7.76199 8.13848 7.54671 4.84646 8.5693C4.30825 8.73076 3.77006 8.40784 3.59963 7.92345C3.43817 7.38525 3.76109 6.84704 4.24548 6.67661C8.08468 5.54638 14.3996 5.76166 18.4003 8.13873C18.8847 8.40784 19.0461 9.05368 18.777 9.54704C18.5079 9.92378 17.8621 10.0852 17.3687 9.81614H17.3777Z" fill="#FDFDFD"/>
</svg>
