<svg width="22" height="16" viewBox="0 0 22 16" fill="none" xmlns="http://www.w3.org/2000/svg">
<path d="M21.5846 3.67934C21.5846 3.67934 21.3736 2.19012 20.7239 1.53621C19.9013 0.675586 18.9816 0.671367 18.5597 0.620742C15.5391 0.401367 11.0039 0.401367 11.0039 0.401367H10.9955C10.9955 0.401367 6.46033 0.401367 3.43971 0.620742C3.01783 0.671367 2.09814 0.675586 1.27549 1.53621C0.625801 2.19012 0.419082 3.67934 0.419082 3.67934C0.419082 3.67934 0.199707 5.43012 0.199707 7.17668V8.81355C0.199707 10.5601 0.414863 12.3109 0.414863 12.3109C0.414863 12.3109 0.625801 13.8001 1.27127 14.454C2.09393 15.3146 3.17393 15.2851 3.65486 15.3779C5.38455 15.5425 10.9997 15.5931 10.9997 15.5931C10.9997 15.5931 15.5391 15.5846 18.5597 15.3695C18.9816 15.3189 19.9013 15.3146 20.7239 14.454C21.3736 13.8001 21.5846 12.3109 21.5846 12.3109C21.5846 12.3109 21.7997 10.5643 21.7997 8.81355V7.17668C21.7997 5.43012 21.5846 3.67934 21.5846 3.67934ZM8.76799 10.8006V4.7298L14.6025 7.77574L8.76799 10.8006Z" fill="#FDFDFD"/>
</svg>
