<svg width="6" height="4" viewBox="0 0 6 4" fill="none" xmlns="http://www.w3.org/2000/svg">
<path d="M5.15415 0.585338C5.06047 0.492212 4.93374 0.439941 4.80165 0.439941C4.66956 0.439941 4.54283 0.492212 4.44915 0.585338L2.65415 2.35534L0.884149 0.585338C0.790468 0.492212 0.663742 0.439941 0.531649 0.439941C0.399556 0.439941 0.27283 0.492212 0.179149 0.585338C0.132285 0.631819 0.0950877 0.68712 0.0697033 0.748049C0.044319 0.808979 0.03125 0.874332 0.03125 0.940338C0.03125 1.00634 0.044319 1.0717 0.0697033 1.13263C0.0950877 1.19356 0.132285 1.24886 0.179149 1.29534L2.29915 3.41534C2.34563 3.4622 2.40093 3.4994 2.46186 3.52478C2.52279 3.55017 2.58814 3.56324 2.65415 3.56324C2.72016 3.56324 2.78551 3.55017 2.84644 3.52478C2.90737 3.4994 2.96267 3.4622 3.00915 3.41534L5.15415 1.29534C5.20101 1.24886 5.23821 1.19356 5.2636 1.13263C5.28898 1.0717 5.30205 1.00634 5.30205 0.940338C5.30205 0.874332 5.28898 0.808979 5.2636 0.748049C5.23821 0.68712 5.20101 0.631819 5.15415 0.585338Z" fill="white"/>
</svg>
