<svg width="15" height="12" viewBox="0 0 15 12" fill="none" xmlns="http://www.w3.org/2000/svg">
<path d="M1.08435 2.6665L6.52763 6.4768C6.96841 6.78535 7.1888 6.93962 7.42853 6.99938C7.64028 7.05216 7.86175 7.05216 8.07351 6.99938C8.31323 6.93962 8.53362 6.78535 8.9744 6.4768L14.4177 2.6665M4.28435 11.3332H11.2177C12.3378 11.3332 12.8978 11.3332 13.3257 11.1152C13.702 10.9234 14.008 10.6175 14.1997 10.2412C14.4177 9.81333 14.4177 9.25328 14.4177 8.13317V3.8665C14.4177 2.7464 14.4177 2.18635 14.1997 1.75852C14.008 1.3822 13.702 1.07624 13.3257 0.884491C12.8978 0.666504 12.3378 0.666504 11.2177 0.666504H4.28435C3.16425 0.666504 2.60419 0.666504 2.17637 0.884491C1.80005 1.07624 1.49408 1.3822 1.30234 1.75852C1.08435 2.18635 1.08435 2.7464 1.08435 3.8665V8.13317C1.08435 9.25328 1.08435 9.81333 1.30234 10.2412C1.49408 10.6175 1.80005 10.9234 2.17637 11.1152C2.60419 11.3332 3.16425 11.3332 4.28435 11.3332Z" stroke="#FDFDFD" stroke-linecap="round" stroke-linejoin="round"/>
</svg>
